<?xml version="1.0" encoding="iso-8859-1"?>
<!-- Generator: Adobe Illustrator 19.0.0, SVG Export Plug-In . SVG Version: 6.00 Build 0)  -->
<svg version="1.1" id="Layer_1" xmlns="http://www.w3.org/2000/svg" xmlns:xlink="http://www.w3.org/1999/xlink" x="0px" y="0px"
	 viewBox="0 0 512 512" style="enable-background:new 0 0 512 512;" xml:space="preserve">
<path style="fill:#FA6E51;" d="M512,256.006C512,397.402,397.394,512.004,256.004,512C114.606,512.004,0,397.402,0,256.006
	C-0.007,114.61,114.606,0,256.004,0C397.394,0,512,114.614,512,256.006z"/>
<path style="fill:#E8573F;" d="M511.69,268.25c-0.076-0.076-0.15-0.151-0.226-0.226c-0.497-0.502-132.493-132.499-132.993-132.993
	C347.219,103.394,303.875,83.729,256,83.729c-94.989,0-172.27,77.282-172.27,172.271c0,47.874,19.663,91.216,51.297,122.467
	c0.495,0.502,132.493,132.498,132.993,132.993c0.076,0.078,0.154,0.153,0.23,0.23C399.892,505.493,505.49,399.896,511.69,268.25z"/>
<g>
	<path style="fill:#F4F6F9;" d="M256,83.73c-94.989,0-172.27,77.282-172.27,172.27S161.011,428.271,256,428.271
		S428.27,350.989,428.27,256S350.989,83.73,256,83.73z M256,413.915c-87.074,0-157.915-70.841-157.915-157.915
		S168.926,98.085,256,98.085S413.915,168.926,413.915,256S343.074,413.915,256,413.915z"/>
	<path style="fill:#F4F6F9;" d="M256,184.221c-39.577,0-71.779,32.203-71.779,71.779s32.203,71.779,71.779,71.779
		s71.779-32.203,71.779-71.779S295.577,184.221,256,184.221z M256,313.424c-31.663,0-57.424-25.761-57.424-57.424
		s25.761-57.423,57.424-57.423s57.424,25.761,57.424,57.423S287.663,313.424,256,313.424z"/>
</g>
<g>
</g>
<g>
</g>
<g>
</g>
<g>
</g>
<g>
</g>
<g>
</g>
<g>
</g>
<g>
</g>
<g>
</g>
<g>
</g>
<g>
</g>
<g>
</g>
<g>
</g>
<g>
</g>
<g>
</g>
</svg>
